<svg 
 xmlns="http://www.w3.org/2000/svg"
 xmlns:xlink="http://www.w3.org/1999/xlink"
 width="10px" height="17px">
<path fill-rule="evenodd"  fill="rgb(0, 142, 214)"
 d="M5.035,16.781 C2.564,16.781 0.512,14.778 0.512,12.307 L0.512,5.255 C0.512,2.784 2.564,0.781 5.035,0.781 C7.506,0.781 9.509,2.784 9.509,5.255 L9.509,12.307 C9.509,14.778 7.506,16.781 5.035,16.781 ZM8.509,5.255 C8.509,3.340 6.951,1.781 5.035,1.781 C3.119,1.781 1.512,3.340 1.512,5.255 L1.512,12.307 C1.512,14.222 3.119,15.781 5.035,15.781 C6.951,15.781 8.509,14.222 8.509,12.307 L8.509,5.255 ZM5.016,7.281 C4.739,7.281 4.516,7.057 4.516,6.781 L4.516,4.281 C4.516,4.005 4.739,3.781 5.016,3.781 C5.292,3.781 5.516,4.005 5.516,4.281 L5.516,6.781 C5.516,7.057 5.292,7.281 5.016,7.281 Z"/>
</svg>